<svg width="20" height="16" viewBox="0 0 20 16" fill="none" xmlns="http://www.w3.org/2000/svg">
<path d="M17.3335 8.00008C17.3335 6.99175 18.1585 6.16675 19.1668 6.16675V2.50008C19.1668 1.49175 18.3418 0.666748 17.3335 0.666748H2.66683C1.6585 0.666748 0.842663 1.49175 0.842663 2.50008V6.16675C1.851 6.16675 2.66683 6.99175 2.66683 8.00008C2.66683 9.00841 1.851 9.83341 0.833496 9.83341V13.5001C0.833496 14.5084 1.6585 15.3334 2.66683 15.3334H17.3335C18.3418 15.3334 19.1668 14.5084 19.1668 13.5001V9.83341C18.1585 9.83341 17.3335 9.00841 17.3335 8.00008ZM13.2818 12.4001L10.0002 10.2917L6.7185 12.4001L7.7085 8.62341L4.69266 6.15758L8.57933 5.92841L10.0002 2.31675L11.4118 5.93758L15.2985 6.16675L12.2827 8.63258L13.2818 12.4001Z" fill="#979797"/>
</svg>
