<svg width="100" height="100" viewBox="0 0 100 100" fill="none" xmlns="http://www.w3.org/2000/svg">
<path d="M81.5735 0H18.4679C8.32298 0 0 8.32298 0 18.4679V81.5321C0 91.677 8.32298 100 18.4679 100H81.5321C91.677 100 100 91.677 100 81.5321V18.4679C100 8.32298 91.7184 0 81.5735 0ZM45.5487 14.4099V13.1677C45.5487 12.5466 46.0455 12.0497 46.6667 12.0497H53.4162C54.0373 12.0497 54.5342 12.5466 54.5342 13.1677V14.4099C62.5673 16.3975 68.53 23.6439 68.53 32.2981H31.5942C31.5528 23.6439 37.5155 16.3975 45.5487 14.4099ZM26.7081 35.0725H73.3747C73.6232 35.0725 73.8716 35.2795 73.8716 35.5694C73.8716 36.853 72.8364 37.8882 71.5528 37.8882H28.53C27.2464 37.8882 26.2112 36.853 26.2112 35.5694C26.2112 35.2795 26.4182 35.0725 26.7081 35.0725ZM88.7371 44.9689C88.7371 46.8737 87.1636 48.4058 85.3002 48.4058H53.8302V81.3665H63.2298C65.0518 81.3665 66.5424 82.8571 66.5424 84.6791C66.5424 86.501 65.0518 87.9917 63.2298 87.9917H36.8944C35.0725 87.9917 33.5818 86.501 33.5818 84.6791C33.5818 82.8571 35.0725 81.3665 36.8944 81.3665H47.2464V48.4058H14.7826C12.8778 48.4058 11.3458 46.8323 11.3458 44.9689V41.8219H50.352H50.6832H88.7371V44.9689Z" fill="#EB2B54"/>
</svg>